name C:\Users\u0101727\Documents\MyRepositories\upper-imu-dc\Results\main_tracking\Case_14\kinematics.mot
datacolumns 10
datarows 18
range 2.80000000 2.97000000
endheader 
time	clav_prot	clav_elev	scapula_abduction	scapula_elevation	scapula_upward_rot	scapula_winging	plane_elv	shoulder_elv	axial_rot	
          2.80000000	        -17.45220756	         -6.04382182	         -5.03307828	         -4.24987642	          9.73739346	          6.16029580	        -20.84324129	         17.47277141	         41.49768881	
          2.81000000	        -17.44165813	         -6.09817501	         -4.98722461	         -4.23969085	          9.69539252	          6.17119276	        -20.94866553	         17.44860457	         41.23807129	
          2.82000000	        -17.44807508	         -6.08917072	         -5.01087847	         -4.22770426	          9.67591435	          6.17423061	        -21.04862645	         17.43715713	         40.98398582	
          2.83000000	        -17.45956506	         -6.08248477	         -5.03642076	         -4.22107599	          9.66844515	          6.17615925	        -21.15012479	         17.43507391	         40.74614945	
          2.84000000	        -17.47508255	         -6.07950677	         -5.06377250	         -4.21979411	          9.66921745	          6.17814014	        -21.25539754	         17.43304012	         40.53990988	
          2.85000000	        -17.49401963	         -6.07996610	         -5.09319427	         -4.22297347	          9.67588653	          6.18052362	        -21.36452373	         17.42426849	         40.38047868	
          2.86000000	        -17.51573838	         -6.08287999	         -5.12481002	         -4.22929346	          9.68653754	          6.18331285	        -21.47522975	         17.40480425	         40.27794660	
          2.87000000	        -17.53939151	         -6.08702021	         -5.15843049	         -4.23723197	          9.69925405	          6.18638801	        -21.58315649	         17.37331457	         40.23366820	
          2.88000000	        -17.56389433	         -6.09121484	         -5.19353578	         -4.24525021	          9.71194434	          6.18964382	        -21.68241164	         17.33071461	         40.23854625	
          2.89000000	        -17.58798209	         -6.09451314	         -5.22934329	         -4.25192242	          9.72233801	          6.19305819	        -21.76625358	         17.27967226	         40.27330003	
          2.90000000	        -17.61032544	         -6.09625083	         -5.26492929	         -4.25602624	          9.72810898	          6.19670846	        -21.82787932	         17.22400810	         40.31079646	
          2.91000000	        -17.62970467	         -6.09604868	         -5.29940536	         -4.25661493	          9.72711085	          6.20074928	        -21.86134513	         17.16798843	         40.32043893	
          2.92000000	        -17.64523130	         -6.09377307	         -5.33214243	         -4.25308413	          9.71769070	          6.20536666	        -21.86257820	         17.11555181	         40.27412592	
          2.93000000	        -17.65657221	         -6.08949944	         -5.36300054	         -4.24524015	          9.69899951	          6.21073330	        -21.83031705	         17.06960559	         40.15246741	
          2.94000000	        -17.66410491	         -6.08352513	         -5.39249630	         -4.23336914	          9.67117838	          6.21699641	        -21.76670977	         17.03160986	         39.94920987	
          2.95000000	        -17.66893657	         -6.07644433	         -5.42184343	         -4.21828558	          9.63531758	          6.22431486	        -21.67729419	         17.00162030	         39.67207110	
          2.96000000	        -17.67276023	         -6.06923315	         -5.45283201	         -4.20131731	          9.59318629	          6.23292346	        -21.57028347	         16.97874719	         39.33990467	
          2.97000000	        -17.67757884	         -6.06325458	         -5.48755871	         -4.18418843	          9.54684138	          6.24317382	        -21.45534140	         16.96177110	         38.97803476	
